<svg width="64" height="39" viewBox="0 0 64 39" fill="none" xmlns="http://www.w3.org/2000/svg">
<path d="M22.373 11.1228C21.8638 11.1228 21.8001 11.1387 21.8001 11.5365C21.8001 12.7141 22.7708 13.7961 24.0756 13.7961C24.6166 13.7961 25.1099 13.637 25.5873 13.3028C25.9215 13.0641 26.1442 12.7936 26.4307 12.7936C26.6534 12.7936 26.8126 12.9528 26.8126 13.1596C26.8126 13.3824 26.5739 13.7484 26.1283 14.1144C25.3327 14.7668 24.5848 15.1009 23.5823 15.1009C21.466 15.1009 19.8906 13.462 19.8906 11.3456C19.8906 9.02238 21.4978 7.36748 23.7574 7.36748C25.6669 7.36748 26.8603 8.52909 26.8603 10.3909C26.8603 11.0751 26.6853 11.1387 26.0328 11.1387H22.4684C22.4207 11.1228 22.4048 11.1228 22.373 11.1228ZM24.728 10.2636C25.0781 10.2636 25.1895 10.2158 25.1895 9.99304C25.1895 9.07011 24.5052 8.30632 23.5028 8.30632C22.5321 8.30632 21.8638 9.08603 21.8638 9.99304C21.8638 10.2317 21.9592 10.2636 22.3093 10.2636H24.728Z" fill="#00BE59"/>
<path d="M34.1164 13.7325C34.5619 13.8598 34.8165 13.8598 34.8165 14.1621C34.8165 14.6077 34.1005 15.1009 33.1457 15.1009C32.5888 15.1009 32.2069 14.3212 32.0637 14.3212C31.825 14.3212 31.1885 15.1009 29.8837 15.1009C28.4356 15.1009 27.465 14.178 27.465 12.8255C27.465 11.266 28.6266 10.2954 30.727 10.2954C31.1089 10.2954 31.5704 10.3431 32.1114 10.4227V9.64297C32.1114 8.76778 31.7136 8.29041 31.0134 8.29041C30.5202 8.29041 30.1064 8.51318 29.7245 8.94282C29.4222 9.29289 29.2313 9.70662 28.6107 9.70662C28.2129 9.70662 27.9742 9.43611 27.9742 9.00647C27.9742 8.16311 29.104 7.35157 31.0453 7.35157C32.1751 7.35157 32.9548 7.65391 33.3844 8.19493C33.7663 8.67231 33.7981 9.40428 33.7981 10.4545V12.8414C33.814 13.3665 33.8936 13.6688 34.1164 13.7325ZM31.0453 11.2501C29.9632 11.2501 29.3586 11.7593 29.3586 12.5868C29.3586 13.3665 29.8996 13.8916 30.7907 13.8916C31.7932 13.8916 32.1273 13.462 32.1273 12.4754V11.3774C31.7295 11.2979 31.3635 11.2501 31.0453 11.2501Z" fill="#00BE59"/>
<path d="M37.7603 9.91348C37.7603 10.2158 37.7762 10.359 37.9035 10.359C37.9831 10.359 38.2854 10.1681 38.7469 9.75435C39.3515 9.19742 39.6857 8.86325 39.6857 8.68822C39.6857 8.49727 39.1288 8.51318 39.1288 8.09945C39.1288 7.60617 39.7334 7.49478 40.9746 7.49478C41.8816 7.49478 42.3272 7.66982 42.3272 8.05172C42.3272 8.62457 41.627 8.44953 41.0064 8.81552C40.72 8.99055 40.3858 9.32472 39.988 9.73844C39.7812 9.9453 39.6698 10.0726 39.6698 10.1681C39.6698 10.3113 39.9244 10.6455 40.4018 11.266C41.4361 12.6027 42.1362 13.3824 42.4863 13.637C42.9796 13.9871 43.6161 13.8757 43.6161 14.369C43.6161 14.7986 43.1546 14.9736 42.1362 14.9736C41.7066 14.9736 41.4361 14.9259 41.3406 14.8941C40.9269 14.7509 40.5927 14.2258 40.0039 13.462C38.715 11.823 38.0467 10.9637 37.9035 10.9637C37.7762 10.9637 37.7603 11.0751 37.7603 11.3615C37.7603 11.4411 37.7603 11.5525 37.7603 11.6798C37.7603 12.905 37.7921 13.6052 37.9671 13.812C38.174 14.0507 38.7309 13.9712 38.7309 14.4326C38.7309 14.8623 38.1899 14.9577 37.0283 14.9577C35.7235 14.9577 35.1825 14.8782 35.1825 14.3849C35.1825 14.0507 35.4848 14.0507 35.7394 13.9234C36.0417 13.7484 36.1054 13.2233 36.1054 12.2367C36.1054 11.6798 36.0895 11.0114 36.0895 10.1681C36.0895 9.84983 36.0895 9.54749 36.0895 9.24515C36.0895 7.06514 36.0736 6.23769 35.8826 6.01492C35.7712 5.88762 35.5166 5.85579 35.2143 5.74441C34.9756 5.66485 34.8801 5.61711 34.8801 5.39433C34.8801 5.092 35.1506 4.9647 35.6917 4.78966C36.535 4.50323 37.1874 4.40776 37.4579 4.40776C37.7762 4.40776 37.8717 4.59871 37.8717 5.02835C37.8717 5.80806 37.7921 6.57186 37.7921 8.0358V9.91348H37.7603Z" fill="#00BE59"/>
<path d="M46.5917 12.5231C46.5917 13.3187 46.6394 13.7643 46.8781 13.8916C47.2123 14.0825 47.5305 14.0348 47.5305 14.4326C47.5305 14.8623 47.0054 14.9577 45.8438 14.9577C44.539 14.9577 43.982 14.8782 43.982 14.3849C43.982 14.0507 44.2844 14.0507 44.539 13.9234C44.8254 13.7643 44.8891 13.3983 44.8891 12.7618C44.8891 12.4595 44.8731 12.1094 44.8731 11.6639C44.8731 11.3933 44.8731 11.1228 44.8731 10.8841C44.8731 9.6907 44.8572 9.0542 44.6026 8.9269C44.2366 8.73595 43.807 8.76778 43.807 8.40179C43.807 8.16311 44.0139 8.00398 44.4117 7.84486C45.4142 7.44704 46.178 7.35157 46.3212 7.35157C46.6076 7.35157 46.7031 7.55843 46.7031 7.97216C46.7031 8.16311 46.7031 8.41771 46.6872 8.75187L46.6235 10.6455C46.6076 11.2979 46.5917 11.9185 46.5917 12.5231ZM45.6369 4.63053C46.3053 4.63053 46.7667 5.06017 46.7667 5.58528C46.7667 6.1104 46.2734 6.55594 45.5574 6.55594C44.905 6.55594 44.4435 6.15813 44.4435 5.64893C44.4276 5.12382 44.9527 4.63053 45.6369 4.63053Z" fill="#00BE59"/>
<path d="M52.9885 7.35157C53.7523 7.35157 54.4365 7.71756 54.8503 8.21084C55.439 8.91099 55.4709 9.77027 55.4709 10.9319C55.4709 11.4888 55.4709 11.823 55.4709 11.9344C55.4709 12.2844 55.4549 12.5709 55.4549 12.8414C55.4549 13.4301 55.5027 13.7484 55.7891 13.9075C56.0437 14.0348 56.346 14.0348 56.346 14.369C56.346 14.8623 55.7891 14.9259 54.5161 14.9259C53.3227 14.9259 52.7657 14.8463 52.7657 14.4167C52.7657 14.0189 53.084 14.0666 53.4182 13.8757C53.6728 13.7325 53.7205 13.2392 53.7205 12.3322C53.7205 9.97713 53.6887 8.76778 52.3361 8.76778C51.811 8.76778 51.2859 9.10194 51.0154 9.64297C50.7449 10.1999 50.7289 11.1706 50.7289 12.5868C50.7289 13.3188 50.7449 13.7325 50.9995 13.8757C51.3336 14.0666 51.6519 14.0189 51.6519 14.4167C51.6519 14.8463 51.1268 14.9418 49.9651 14.9418C48.6603 14.9418 48.1034 14.8623 48.1034 14.369C48.1034 14.0348 48.4057 14.0348 48.6603 13.9075C48.9467 13.7484 49.0104 13.3824 49.0104 12.7459C49.0104 12.4436 48.9945 12.0935 48.9945 11.6479C48.9945 11.3774 48.9945 11.1069 48.9945 10.8682C48.9945 9.67479 48.9786 9.03829 48.724 8.91099C48.358 8.72004 47.9283 8.75187 47.9283 8.38588C47.9283 8.14719 48.1352 7.98807 48.533 7.82894C49.4878 7.46296 50.1879 7.36748 50.3789 7.36748C50.6494 7.36748 50.7767 7.49478 50.7767 7.82894V8.24267C50.7767 8.29041 50.7767 8.32223 50.7767 8.32223C50.7767 8.38588 50.7767 8.41771 50.8403 8.41771C50.8722 8.41771 50.904 8.40179 50.9199 8.38588L51.0949 8.22676C51.5246 7.84486 51.9224 7.35157 52.9885 7.35157Z" fill="#00BE59"/>
<path d="M56.9348 10.1681C56.9348 8.56092 58.2714 7.35157 60.165 7.35157C60.6742 7.35157 61.3107 7.46296 62.0904 7.63799C62.4882 7.63799 62.902 7.43113 63.4748 7.03332C63.6817 7.16062 63.7931 7.33566 63.7931 7.51069C63.7931 7.92442 63.4907 8.32223 62.8861 8.64048C63.0929 9.03829 63.1884 9.42019 63.1884 9.84983C63.1884 11.457 61.8995 12.6186 59.9263 12.6186C59.3853 12.6186 58.892 12.539 58.4306 12.3799C58.2237 12.6027 58.1282 12.7936 58.1282 12.9687C58.1282 13.4461 58.6056 13.6529 59.5763 13.6529C60.3241 13.6529 61.072 13.4938 61.8677 13.4938C63.252 13.4938 63.9999 14.0826 63.9999 15.1169C63.9999 16.6285 62.3609 17.8697 59.8786 17.8697C57.8577 17.8697 56.5847 16.8991 56.5847 15.8966C56.5847 15.3555 56.9348 14.9896 57.6349 14.5758C57.0462 14.369 56.7279 13.9712 56.7279 13.4779C56.7279 12.9687 57.0939 12.4913 57.81 12.0458C57.2212 11.5684 56.9348 10.9319 56.9348 10.1681ZM58.176 15.7693C58.176 16.4217 58.892 16.915 60.1491 16.915C61.5494 16.915 62.4564 16.2944 62.4564 15.5942C62.4564 15.1328 62.1223 14.8463 61.4858 14.8463C61.0402 14.8463 60.356 14.9896 59.4967 14.9896C59.2103 14.9896 58.892 14.9736 58.5579 14.9259C58.3033 15.1805 58.176 15.451 58.176 15.7693ZM60.0218 11.6639C60.8493 11.6639 61.4858 10.9955 61.4858 9.99304C61.4858 8.95873 60.8652 8.29041 60.0377 8.29041C59.2739 8.29041 58.6693 8.97464 58.6693 9.97713C58.6693 11.0114 59.2262 11.6639 60.0218 11.6639Z" fill="#00BE59"/>
<path d="M44.3799 33.1457C44.3799 33.0184 44.348 32.9547 44.3162 32.9547C44.2685 32.9547 44.0934 33.1139 43.7593 33.3685C43.1864 33.7981 42.6295 34.005 42.0089 34.005C40.1949 34.005 38.8741 32.5888 38.8741 30.4087C38.8741 27.9901 40.3699 26.3192 42.4704 26.3192C43.4888 26.3192 44.1253 26.7648 44.2366 26.7648C44.3162 26.7648 44.3321 26.6375 44.3321 26.3988V25.8737C44.3321 25.2054 44.2526 24.9826 43.8707 24.8553C43.5206 24.7439 43.2183 24.7439 43.2183 24.4097C43.2183 24.0915 43.5206 23.9483 44.1412 23.7255C44.7777 23.4868 45.2869 23.4073 45.6529 23.4073C45.987 23.4073 46.1143 23.5823 46.1143 24.0278C46.1143 24.2824 46.0348 25.5714 46.0348 28.6425C46.0348 31.1407 46.0507 32.4137 46.2575 32.5569C46.5758 32.7956 47.1645 32.6365 47.1645 33.082C47.1645 33.4321 46.7667 33.5435 46.0188 33.7981C45.5096 33.9731 44.9845 34.0368 44.7936 34.0368C44.5231 34.0368 44.3958 33.8936 44.3958 33.5594V33.1457H44.3799ZM44.3003 28.9448C44.3003 28.5311 44.3003 28.2606 44.1571 28.0696C43.8547 27.6559 43.2183 27.3217 42.5818 27.3217C41.5156 27.3217 40.7677 28.2447 40.7677 29.8518C40.7677 31.5863 41.6111 32.6683 42.6772 32.6683C43.7115 32.6683 44.3003 32.0955 44.3003 30.9816V28.9448Z" fill="#00BE59"/>
<path d="M25.0144 29.1039H22.4525V32.175H25.0303C26.2238 32.175 26.9557 31.809 26.9557 30.7111C26.9557 29.5336 26.2238 29.1039 25.0144 29.1039ZM35.7872 22.5321C35.994 22.5321 36.1054 22.4048 36.1054 22.182C36.1054 21.9592 35.994 21.8319 35.7872 21.8319C35.5803 21.8319 35.4689 21.9592 35.4689 22.182C35.4689 22.4048 35.5803 22.5321 35.7872 22.5321ZM26.4784 26.2715C26.4784 25.4759 25.9533 24.9508 24.8076 24.9508H22.4525V27.6082H24.8076C25.6827 27.6241 26.4784 27.2899 26.4784 26.2715ZM7.55843 10.1681H4.99652V13.2392H7.57434C8.76778 13.2392 9.49975 12.8732 9.49975 11.7752C9.49975 10.5977 8.75186 10.1681 7.55843 10.1681ZM32.8752 30.6474C32.1909 30.7747 31.634 30.9657 31.634 31.6817C31.634 32.2387 32.1432 32.6206 32.7956 32.6206C33.639 32.6206 34.721 32.2069 34.721 31.2521V30.186C34.4823 30.2974 34.1959 30.3928 33.8618 30.4565L32.8752 30.6474ZM9.02238 7.35157C9.02238 6.55594 8.49726 6.03083 7.35157 6.03083H4.99652V8.68821H7.35157C8.22675 8.68821 9.02238 8.35405 9.02238 7.35157ZM19.1905 18.9359V0H0V19.2064H18.9359V38.1422H38.1422V18.9359H19.1905ZM15.1328 3.08702H14.9736V2.75286H15.1328C15.2919 2.75286 15.4192 2.6733 15.4192 2.51417C15.4192 2.33913 15.3078 2.22775 15.1328 2.22775C14.91 2.22775 14.8463 2.4187 14.8304 2.59373L14.4167 2.49826C14.4804 2.08454 14.7509 1.86176 15.1805 1.86176C15.5306 1.86176 15.8647 2.05271 15.8647 2.43461C15.8647 2.68921 15.7374 2.83242 15.5147 2.88016C15.7852 2.94381 15.9125 3.13476 15.9284 3.40527C15.9284 3.85082 15.5624 4.0736 15.1487 4.0736C14.735 4.0736 14.4008 3.88265 14.4008 3.32571H14.7986C14.7986 3.5644 14.91 3.70761 15.1487 3.70761C15.3555 3.70761 15.4669 3.5644 15.4669 3.37345C15.451 3.16658 15.2919 3.08702 15.1328 3.08702ZM7.49478 14.9896H3.02337V4.47141H7.97215C9.70661 4.47141 11.091 5.34659 11.091 7.08105C11.091 8.22675 10.4545 8.99055 9.3088 9.21333V9.24515C10.7568 9.38836 11.5684 10.5977 11.5684 11.8548C11.5684 14.4804 9.6907 14.9896 7.49478 14.9896ZM16.9468 9.16559C15.7215 9.16559 14.6077 9.73844 14.6077 11.3615V14.9896H12.8095V7.51069H14.6077V8.545H14.6395C15.0691 7.68573 15.8966 7.33565 16.9468 7.33565V9.16559ZM16.8672 4.08951C16.4694 4.08951 16.1353 3.88265 16.1193 3.45301L16.5649 3.42118C16.5649 3.59622 16.6922 3.75535 16.8831 3.75535C17.1377 3.75535 17.2332 3.53257 17.2332 3.3098C17.2332 3.02337 17.09 2.91198 16.8672 2.91198C16.7081 2.91198 16.6126 2.97563 16.5649 3.11885L16.1989 3.08702L16.358 1.9095H17.5674L17.5196 2.27548H16.6922L16.6285 2.72103C16.7399 2.62556 16.8672 2.56191 17.0104 2.56191C17.4719 2.56191 17.6947 2.89607 17.6947 3.29388C17.6629 3.80308 17.3128 4.08951 16.8672 4.08951ZM35.819 20.6703C36.185 20.6703 36.4237 20.8613 36.4873 21.2113L36.0736 21.2591C36.0577 21.0999 35.9622 21.0045 35.819 21.0045C35.5167 21.0045 35.4371 21.4023 35.4371 21.6569C35.4848 21.5773 35.6121 21.45 35.8508 21.45C36.2486 21.45 36.4873 21.7364 36.4873 22.1661C36.4873 22.5639 36.2009 22.8821 35.7713 22.8821C35.1507 22.8821 35.0075 22.3252 35.0075 21.816C35.0234 21.1477 35.278 20.6703 35.819 20.6703ZM33.9731 21.7046C33.814 21.7046 33.7345 21.7683 33.6708 21.9115L33.3048 21.8797L33.4639 20.7021H34.6733L34.6256 21.0681H33.7981L33.7345 21.5137C33.8458 21.4182 33.9731 21.3545 34.1164 21.3545C34.5778 21.3545 34.8006 21.6887 34.8006 22.0865C34.8006 22.5798 34.4505 22.8662 34.005 22.8662C33.6072 22.8662 33.273 22.6594 33.2571 22.2297L33.7026 22.1979C33.7026 22.3729 33.8299 22.5321 34.0209 22.5321C34.2755 22.5321 34.371 22.3093 34.371 22.0865C34.3391 21.8319 34.1959 21.7046 33.9731 21.7046ZM24.9667 33.9254H20.4794V23.3913H25.4281C27.1626 23.3913 28.547 24.2665 28.547 26.001C28.547 27.1467 27.9105 27.9105 26.7648 28.1333V28.1651C28.2128 28.3083 29.0244 29.5177 29.0244 30.7747C29.0244 33.4003 27.1467 33.9254 24.9667 33.9254ZM34.8961 33.9254C34.7847 33.7504 34.721 33.4321 34.721 33.2412C34.0209 33.7981 33.2093 34.1004 32.2864 34.1004C30.8702 34.1004 29.7404 33.1934 29.7404 31.7454C29.7404 30.2815 30.902 29.629 32.0159 29.4063L32.7638 29.2631C33.4162 29.1358 34.2596 28.9766 34.721 28.8175V28.5947C34.721 27.8628 34.0845 27.6559 33.3048 27.6559C32.2546 27.6559 31.9204 27.9741 31.9204 28.7857L30.1223 28.7061C30.1223 26.9398 31.6817 26.2715 33.3207 26.2715C34.9279 26.2715 36.551 26.5898 36.551 28.722V32.6683C36.551 33.4321 36.726 33.7663 36.8374 33.9254H34.8961Z" fill="#00BE59"/>
</svg>
