<svg width="51" height="51" viewBox="0 0 51 51" fill="none" xmlns="http://www.w3.org/2000/svg">
<path d="M25.334 34.9176C20.6065 34.9176 16.6631 31.571 15.727 27.1244H0C1.11165 40.0546 11.9591 50.1999 25.1702 50.1999C38.3813 50.1999 49.2404 40.0546 50.3404 27.1244H34.941C34.0049 31.5827 30.0615 34.9176 25.334 34.9176Z" fill="white"/>
<path d="M30.9508 49.5447C41.4355 47.0873 49.4043 38.1122 50.3404 27.1244H44.1385C43.5183 37.0941 38.2877 45.5427 30.9508 49.5447Z" fill="#DFDFDF"/>
<path d="M31.1262 25.1C31.1145 25.1 31.1145 25.1 31.1262 25.1C31.1145 24.3862 30.9858 23.7075 30.7518 23.0756C29.9327 20.8757 27.8147 19.3194 25.3339 19.3194C22.8532 19.3194 20.7352 20.8874 19.9161 23.0756C19.6821 23.7075 19.5533 24.3862 19.5533 25.1H19.565C19.565 25.8138 19.6938 26.4925 19.9278 27.1243C20.7469 29.3242 22.8649 30.8806 25.3456 30.8806C27.8264 30.8806 29.9444 29.3125 30.7635 27.1243C30.9975 26.5042 31.1262 25.8138 31.1262 25.1Z" fill="white"/>
<path d="M25.3456 15.294C30.0731 15.294 34.0165 18.6407 34.9527 23.0873H50.6796C49.568 10.1453 38.7206 0 25.4978 0C12.2749 0 1.43923 10.1453 0.327576 23.0756H15.7386C16.6747 18.629 20.6182 15.294 25.3456 15.294Z" fill="#F00000"/>
<path d="M44.1385 23.0756H50.6681C49.7085 11.9005 41.4706 2.79668 30.7168 0.538269C38.1824 4.48171 43.5067 13.0122 44.1385 23.0756Z" fill="#B52A2A"/>
</svg>
