<svg width="58" height="63" viewBox="0 0 58 63" fill="none" xmlns="http://www.w3.org/2000/svg">
<path d="M57.5357 41.4588C57.1605 40.9554 57.1525 40.533 57.2591 39.9824C57.5371 38.5438 57.9676 37.1066 57.56 35.6208C57.1781 34.228 57.6207 32.7436 57.0229 31.363C55.3252 27.4413 52.861 24.3036 48.6167 22.9352C48.0458 22.7517 47.4709 22.5303 46.8826 22.4588C38.7786 21.4764 34.6032 24.5492 30.9757 30.4237C30.7287 30.8232 30.5398 31.278 30.5708 31.753C30.6666 33.1741 30.1228 34.4372 29.6491 35.7193C29.278 36.7247 29.3198 37.6815 29.8826 38.61C30.1606 39.0674 30.3859 39.5573 30.6815 40.0013C31.0256 40.5182 31.0917 40.9001 30.5357 41.3724C29.7638 42.0297 29.7058 42.9149 30.0378 43.8515C30.3792 44.8137 31.1268 45.2537 32.0567 45.4318C32.4818 45.5128 32.699 45.3562 32.4737 44.861C32.2712 44.4183 32.1457 43.9406 31.9865 43.479C34.3927 49.2564 39.1606 51.1916 44.9487 51.5155C42.9743 51.8137 39.946 51.3765 37.946 50.4925C37.197 50.1619 36.7894 50.3171 36.417 51.0162C35.6288 52.4952 34.8394 53.9649 34.5641 55.6464C34.4831 56.1363 34.2091 56.363 33.6923 56.4466C32.6369 56.6167 32.5654 55.8731 32.4089 55.1848C31.4413 50.9446 30.0958 46.8083 28.9244 42.6234C28.7692 42.0688 28.529 41.4993 27.8758 41.39C26.0863 41.0917 24.4156 40.3589 22.6478 39.9946C22.1079 39.8839 21.915 39.6289 21.9312 39.1079C21.946 38.6437 21.8245 38.1538 22.4791 37.9959C23.6531 37.7112 24.4696 36.9298 25.1444 35.9824C25.4345 35.5762 25.8056 35.3535 26.2793 35.2213C26.8866 35.0526 27.7571 34.9919 28.0081 34.5776C28.367 33.9892 27.4683 33.5816 27.1417 33.0904C26.7058 32.4359 26.8299 32.1673 27.5357 31.9743C28.1957 31.7935 29.1565 32.0634 29.4656 31.471C29.7638 30.8988 29.1228 30.1768 28.8988 29.5249C28.668 28.8542 28.8218 28.506 29.4872 28.3387C30.4345 28.0985 31.3104 27.6882 32.1646 27.2213C32.726 26.915 32.7301 26.6761 32.1673 26.3387C31.251 25.7895 30.2375 25.3927 29.4467 24.6491C29.2186 24.4345 28.7665 24.3239 28.8556 23.9271C28.9298 23.5965 29.3468 23.6194 29.6181 23.529C31.3657 22.946 33.0742 22.2766 34.6302 21.2712C34.9055 21.0931 35.332 20.9393 35.3225 20.6086C35.3131 20.2577 34.8556 20.1916 34.5614 20.0661C33.2051 19.4885 31.8394 18.9312 30.444 18.3509C31.6977 16.8758 33.1363 15.7692 34.4278 14.5101C34.6531 14.2915 35.0877 14.1174 34.9649 13.7436C34.8664 13.444 34.4359 13.5263 34.1606 13.4791C32.7098 13.2294 31.2537 13.0013 29.7935 12.8138C29.0755 12.722 28.9635 12.498 29.3482 11.8704C30.3441 10.2456 31.2928 8.59243 32.251 6.94466C32.3562 6.76518 32.6518 6.59919 32.4332 6.34952C32.2294 6.11875 31.9865 6.34412 31.7908 6.4116C30.3387 6.91902 28.8812 7.41565 27.4575 7.99595C26.6761 8.31443 26.4089 8.11065 26.2388 7.31848C25.8151 5.33603 25.6855 3.33873 25.7814 1.32389C25.8218 0.480431 25.5735 0.434547 24.8934 0.82591C22.9662 1.93657 21.1255 3.1444 19.7625 4.94467C19.363 5.47233 19.0769 5.43589 18.6923 4.91363C17.8407 3.75303 16.9797 2.59649 16.0526 1.49798C15.5803 0.937922 15.143 0.280702 14.3549 0C13.9892 2.1309 13.9028 4.25236 13.0027 6.20782C12.7206 6.82186 12.5128 7.04048 11.8515 6.60863C10.4885 5.72199 8.93522 5.2888 7.35762 4.94737C7.139 4.90013 6.85155 4.77867 6.73414 5.04318C6.67611 5.17543 6.80296 5.4224 6.90148 5.58434C7.75438 6.9811 8.03643 8.56949 8.49122 10.1053C8.73683 10.9366 8.4197 11.1214 7.71389 11.1619C6.64372 11.2227 5.57489 11.3009 4.50607 11.3873C3.2888 11.4858 2.07287 11.6005 0.796221 11.7125C1.07017 12.3171 1.52362 12.6181 1.90013 12.9838C3.03509 14.085 4.05398 15.2685 4.8448 16.6545C5.24561 17.3549 5.15924 17.7422 4.47638 18.193C2.95816 19.1943 1.49932 20.2834 0 21.3482C0.414305 21.807 0.88259 21.7652 1.29555 21.861C3.01484 22.2564 4.46018 23.0675 5.55195 24.4885C5.90823 24.9514 5.84615 25.2631 5.39945 25.5614C4.52496 26.1457 3.84615 26.9379 3.14845 27.7044C2.20513 28.7409 2.21997 28.753 3.58839 29.1984C3.90688 29.3023 4.22807 29.3981 4.53711 29.5236C5.27665 29.8218 6.35357 29.7463 6.71255 30.3805C7.10121 31.0661 6.47368 31.9676 6.29959 32.7733C5.92442 34.5006 5.89338 34.4939 7.62617 34.332C9.73953 34.1336 9.75708 34.1322 9.91632 36.1538C9.9784 36.9311 10.1322 37.2348 11.0108 36.8556C11.9015 36.4723 11.7908 36.0904 11.3752 35.421C9.37381 32.1997 8.65991 28.641 8.75708 24.8866C8.78272 25.0742 8.80701 25.2618 8.83535 25.4494C9.21052 27.9312 9.54655 30.4237 10.4885 32.7746C11.3779 34.9973 12.4926 37.027 15.0135 37.7827C15.5088 37.9311 15.9824 38.1052 15.942 38.7732C15.9042 39.4116 15.4237 39.5816 14.9393 39.7436C13.1336 40.3468 11.3347 40.9743 9.51281 41.5263C8.81241 41.7382 8.46963 42.139 8.278 42.8124C7.43589 45.7665 6.57489 48.7152 5.69365 51.6585C5.54655 52.1511 5.65047 52.4467 6.02024 52.7921C7.56275 54.2334 9.21457 55.5398 10.9015 56.8029C12.0081 57.6315 13.0742 57.9311 14.5722 57.4696C19.3832 55.9892 23.6019 57.6221 26.475 61.8043C26.6747 62.0958 26.8772 62.394 27.2658 62.2591C27.6194 62.1363 27.5533 61.7759 27.5533 61.4777C27.5546 60.3711 27.5573 59.2645 27.5533 58.1578C27.5519 57.6801 27.641 57.2523 28.228 57.2429C29.5681 57.2199 30.9082 57.2199 32.2483 57.2267C32.529 57.228 32.7422 57.4102 32.9325 57.6099C33.6477 58.363 34.4453 59.0526 35.0647 59.8758C36.1619 61.336 37.2672 62.5479 39.2631 61.3481C39.2888 61.3319 39.3292 61.3346 39.3616 61.3387C40.1295 61.4129 40.2442 60.9608 40.2172 60.3346C40.1889 59.6653 40.2442 58.9932 40.2172 58.3238C40.1862 57.56 40.5047 57.2145 41.2807 57.2253C42.5546 57.2429 43.8299 57.2456 45.1025 57.2064C45.8529 57.1835 46.1201 57.502 46.0958 58.2253C46.062 59.197 46.0877 60.17 46.089 61.1417C46.089 61.3873 46.139 61.6275 46.4102 61.7004C46.6639 61.7678 46.8677 61.641 47.0108 61.4305C47.3184 60.9757 47.4871 60.5384 46.923 60.1282C46.0796 59.5155 46.1525 58.7017 46.5195 57.8812C46.8785 57.0782 47.5749 56.4345 48.4089 56.7408C49.6315 57.1902 50.3427 56.5587 51.1457 55.9284C51.4318 55.7031 51.7368 55.4993 52.0364 55.2928C53.4075 54.3495 53.4952 54.1106 52.8286 52.6261C52.529 51.9581 52.2105 51.2793 51.78 50.695C51.2969 50.0404 51.4386 49.6572 52.0485 49.224C52.896 48.6207 53.6896 47.9298 54.2834 47.0688C54.9055 46.1646 55.6545 45.479 56.6491 44.9716C58.0107 44.2793 58.4116 42.6342 57.5357 41.4588ZM42.5614 39.7894C41.6127 41.1403 39.4966 41.9851 37.8353 41.5249C36.0634 41.0337 34.7328 39.9838 34.3063 38.0782C34.0405 36.8893 34.2969 36.5749 35.5209 36.5749C36.8002 36.5749 38.0472 36.367 39.2793 36.0445C40.4224 35.7449 41.4709 35.3306 41.6639 33.9311C43.5074 35.2307 43.8826 37.9055 42.5614 39.7894ZM16.0256 21.2456C14.6599 20.9878 13.2874 20.9339 11.9555 21.3185C11.0297 21.587 10.8178 21.1079 10.7085 20.4062C10.4197 18.5357 11.9393 16.6559 13.861 16.4899C15.7436 16.3279 17.4993 18 17.4953 19.9528C17.4939 21.2672 17.2685 21.4804 16.0256 21.2456ZM19.2874 20.2294C19.1471 19.0391 19.4291 18.2712 20.2105 18.0621C20.5951 17.9595 21 17.9339 21.2402 17.8974C22.7517 17.9487 24.0324 18.2227 25.2078 18.9528C25.865 19.3617 26.0836 19.9069 26.0216 20.6356C25.9649 21.309 25.6882 21.5897 24.973 21.394C23.4872 20.9878 21.9662 20.8205 20.4224 20.8178C19.9784 20.8178 19.3832 21.0472 19.2874 20.2294ZM25.6761 54.3157C26.3563 55.004 27.116 55.6113 27.8812 56.2145C27.7975 56.3063 27.7139 56.3981 27.6316 56.4898C26.7031 55.6707 25.7638 54.8623 24.8488 54.0269C24.5034 53.7112 24.7476 53.4197 25 53.1781C25.6019 52.5978 26.1781 51.9811 26.8272 51.4575C27.5965 50.8367 27.5992 50.1525 27.2469 49.3212C26.1876 46.8286 24.4818 42.8853 23.166 40.8826C25.1336 42.6531 27.0729 47.8002 27.7908 49.5654C28.1106 50.3508 27.9797 50.9932 27.3509 51.5519C26.8002 52.0404 26.2901 52.5789 25.7085 53.0283C25.1187 53.4844 25.1997 53.834 25.6761 54.3157ZM49.2375 41.3927C47.5708 41.2213 45.946 39.8704 45.4372 38.2334C44.9811 36.7652 45.4912 35.1687 46.8151 34.0661C47.5681 36.0459 49.3657 36.0054 50.9271 36.3428C51.8056 36.533 52.7179 36.6086 53.6261 36.5263C54.197 36.475 54.3738 36.7152 54.3819 37.2766C54.4143 39.7314 52.0027 41.6761 49.2375 41.3927Z" fill="#35C9DD"/>
</svg>
